<?xml version="1.0" standalone="no"?>
<svg xmlns:xlink="http://www.w3.org/1999/xlink" id="wave" style="transform:rotate(180deg); transition: 0.3s" viewBox="0 0 1440 100" version="1.1" xmlns="http://www.w3.org/2000/svg"><defs><linearGradient id="sw-gradient-0" x1="0" x2="0" y1="1" y2="0"><stop stop-color="rgba(111, 87, 248, 1)" offset="0%"/><stop stop-color="rgba(111, 87, 248, 1)" offset="100%"/></linearGradient></defs><path style="transform:translate(0, 0px); opacity:1" fill="url(#sw-gradient-0)" d="M0,70L40,71.7C80,73,160,77,240,70C320,63,400,47,480,46.7C560,47,640,63,720,66.7C800,70,880,60,960,48.3C1040,37,1120,23,1200,21.7C1280,20,1360,30,1440,35C1520,40,1600,40,1680,40C1760,40,1840,40,1920,43.3C2000,47,2080,53,2160,58.3C2240,63,2320,67,2400,68.3C2480,70,2560,70,2640,70C2720,70,2800,70,2880,68.3C2960,67,3040,63,3120,63.3C3200,63,3280,67,3360,58.3C3440,50,3520,30,3600,23.3C3680,17,3760,23,3840,30C3920,37,4000,43,4080,46.7C4160,50,4240,50,4320,48.3C4400,47,4480,43,4560,40C4640,37,4720,33,4800,26.7C4880,20,4960,10,5040,20C5120,30,5200,60,5280,70C5360,80,5440,70,5520,63.3C5600,57,5680,53,5720,51.7L5760,50L5760,100L5720,100C5680,100,5600,100,5520,100C5440,100,5360,100,5280,100C5200,100,5120,100,5040,100C4960,100,4880,100,4800,100C4720,100,4640,100,4560,100C4480,100,4400,100,4320,100C4240,100,4160,100,4080,100C4000,100,3920,100,3840,100C3760,100,3680,100,3600,100C3520,100,3440,100,3360,100C3280,100,3200,100,3120,100C3040,100,2960,100,2880,100C2800,100,2720,100,2640,100C2560,100,2480,100,2400,100C2320,100,2240,100,2160,100C2080,100,2000,100,1920,100C1840,100,1760,100,1680,100C1600,100,1520,100,1440,100C1360,100,1280,100,1200,100C1120,100,1040,100,960,100C880,100,800,100,720,100C640,100,560,100,480,100C400,100,320,100,240,100C160,100,80,100,40,100L0,100Z"/></svg>